<?xml version="1.0" standalone="no"?><!DOCTYPE svg PUBLIC "-//W3C//DTD SVG 1.1//EN" "http://www.w3.org/Graphics/SVG/1.1/DTD/svg11.dtd"><svg t="1751083772300" class="icon" viewBox="0 0 1024 1024" version="1.1" xmlns="http://www.w3.org/2000/svg" p-id="3448" xmlns:xlink="http://www.w3.org/1999/xlink" width="64" height="64"><path d="M872 212.679c0-10.577-6.212-19.679-13.42-19.679H167.703c-7.208 0-13.703 9.103-13.703 19.679V666h718V212.679z m-29 121.366V647H179V216h664v118.045z" fill="#53AFFD" p-id="3449"></path><path d="M928 713.53c0-7.472-6.058-13.53-13.53-13.53H109.53c-7.472 0-13.53 6.058-13.53 13.53v5.94c0 7.472 6.058 13.53 13.53 13.53h804.94c7.472 0 13.53-6.058 13.53-13.53v-5.94z" fill="#1083EA" p-id="3450"></path><path d="M914.392 666H906V212.679C906 183.081 884.692 159 858.58 159H167.703C141.592 159 120 183.081 120 212.679V666h-10.645C83.243 666 62 687.619 62 713.731v5.919C62 745.762 83.243 767 109.355 767h805.037C940.504 767 962 745.762 962 719.65v-5.919C962 687.619 940.504 666 914.392 666zM154 212.679c0-10.577 6.496-19.679 13.703-19.679H858.58c7.208 0 13.42 9.103 13.42 19.679V666H154V212.679zM928 719.47c0 7.472-6.058 13.53-13.53 13.53H109.53c-7.472 0-13.53-6.058-13.53-13.53v-5.94c0-7.472 6.058-13.53 13.53-13.53h804.94c7.472 0 13.53 6.058 13.53 13.53v5.94z" fill="" p-id="3451"></path><path d="M179 647h664V334H179v313z m465-134h95v88h-95v-88z m-182-52h95v140h-95V461z m-182-71h95v211h-95V390z" fill="#F3FAFF" p-id="3452"></path><path d="M179 216h664v118H179z" fill="#1083EA" p-id="3453"></path><path d="M280 390h95v211h-95z" fill="#FF9702" p-id="3454"></path><path d="M462 461h95v140h-95z" fill="#E0344C" p-id="3455"></path><path d="M644 513h95v88h-95z" fill="#2FBC3C" p-id="3456"></path></svg>